
<svg width="50" height="30" viewBox="0 0 50 30" xmlns="http://www.w3.org/2000/svg">
  <!-- Truck body -->
  <rect x="5" y="10" width="25" height="12" fill="#3498db" stroke="#2980b9" stroke-width="1"/>
  
  <!-- Truck cab -->
  <rect x="30" y="8" width="12" height="14" fill="#3498db" stroke="#2980b9" stroke-width="1"/>
  
  <!-- Windshield -->
  <rect x="31" y="9" width="10" height="6" fill="#ecf0f1" stroke="#bdc3c7" stroke-width="0.5"/>
  
  <!-- Wheels with rotation class -->
  <g class="truck-wheel">
    <circle cx="12" cy="25" r="4" fill="#34495e" stroke="#2c3e50" stroke-width="1"/>
    <circle cx="12" cy="25" r="2" fill="#95a5a6"/>
    <!-- Wheel spokes for rotation visibility -->
    <line x1="12" y1="21" x2="12" y2="29" stroke="#2c3e50" stroke-width="1"/>
    <line x1="8" y1="25" x2="16" y2="25" stroke="#2c3e50" stroke-width="1"/>
  </g>
  
  <g class="truck-wheel">
    <circle cx="35" cy="25" r="4" fill="#34495e" stroke="#2c3e50" stroke-width="1"/>
    <circle cx="35" cy="25" r="2" fill="#95a5a6"/>
    <!-- Wheel spokes for rotation visibility -->
    <line x1="35" y1="21" x2="35" y2="29" stroke="#2c3e50" stroke-width="1"/>
    <line x1="31" y1="25" x2="39" y2="25" stroke="#2c3e50" stroke-width="1"/>
  </g>
  
  <!-- Truck bed lines -->
  <line x1="8" y1="13" x2="27" y2="13" stroke="#2980b9" stroke-width="0.5"/>
  <line x1="8" y1="16" x2="27" y2="16" stroke="#2980b9" stroke-width="0.5"/>
  <line x1="8" y1="19" x2="27" y2="19" stroke="#2980b9" stroke-width="0.5"/>
  
  <!-- Cab details -->
  <rect x="40" y="12" width="1" height="8" fill="#2980b9"/>
  
  <!-- Motion lines -->
  <line x1="0" y1="5" x2="4" y2="5" stroke="#bdc3c7" stroke-width="1" opacity="0.7"/>
  <line x1="1" y1="8" x2="3" y2="8" stroke="#bdc3c7" stroke-width="1" opacity="0.5"/>
  
  <!-- Exhaust -->
  <rect x="42" y="18" width="2" height="3" fill="#7f8c8d"/>
  <ellipse cx="47" cy="19" rx="2" ry="1" fill="#95a5a6" opacity="0.6"/>
</svg>
